<svg width="1600" height="900" viewBox="0 0 1600 900" fill="none" xmlns="http://www.w3.org/2000/svg">
  <defs>
    <linearGradient id="bg5" x1="0" y1="0" x2="1600" y2="900" gradientUnits="userSpaceOnUse">
      <stop stop-color="#FFF7ED"/>
      <stop offset="1" stop-color="#ECFEFF"/>
    </linearGradient>
    <!-- 流程步骤渐变 -->
    <linearGradient id="step1-g" x1="0" y1="0" x2="0" y2="1">
      <stop stop-color="#FED7AA"/><stop offset="1" stop-color="#FDBA74"/>
    </linearGradient>
    <linearGradient id="step2-g" x1="0" y1="0" x2="0" y2="1">
      <stop stop-color="#FDBA74"/><stop offset="1" stop-color="#FB923C"/>
    </linearGradient>
    <linearGradient id="step3-g" x1="0" y1="0" x2="0" y2="1">
      <stop stop-color="#FB923C"/><stop offset="1" stop-color="#F97316"/>
    </linearGradient>
    <linearGradient id="step4-g" x1="0" y1="0" x2="0" y2="1">
      <stop stop-color="#F97316"/><stop offset="1" stop-color="#EA580C"/>
    </linearGradient>
    <linearGradient id="step5-g" x1="0" y1="0" x2="0" y2="1">
      <stop stop-color="#EA580C"/><stop offset="1" stop-color="#C2410C"/>
    </linearGradient>
    <!-- 右侧详情头部渐变 -->
    <linearGradient id="detail-hd" x1="992" y1="310" x2="1528" y2="420" gradientUnits="userSpaceOnUse">
      <stop stop-color="#F97316"/>
      <stop offset="1" stop-color="#EA580C"/>
    </linearGradient>
    <!-- 底部统计栏渐变 -->
    <linearGradient id="bottom-g" x1="72" y1="760" x2="1528" y2="828" gradientUnits="userSpaceOnUse">
      <stop stop-color="#FFF7ED"/>
      <stop offset="1" stop-color="#FFEDD5"/>
    </linearGradient>
    <style>
      text { font-family: "PingFang SC","Microsoft YaHei","Noto Sans CJK SC",Arial,sans-serif; }
    </style>
    <clipPath id="clip-detail"><rect x="992" y="310" width="536" height="430" rx="24"/></clipPath>
    <clipPath id="clip-bottom"><rect x="72" y="758" width="1456" height="72" rx="20"/></clipPath>
  </defs>

  <!-- 背景 -->
  <rect width="1600" height="900" rx="36" fill="url(#bg5)"/>
  <rect x="36" y="36" width="1528" height="828" rx="32" fill="#F8FAFC" stroke="#DDE7EF"
        filter="drop-shadow(0 8px 24px rgba(234,88,12,0.06))"/>

  <!-- ===== 顶部标题栏 ===== -->
  <rect x="72" y="72" width="1456" height="72" rx="18" fill="white" stroke="#E2E8F0"/>
  <!-- 左侧图标 -->
  <rect x="88" y="88" width="40" height="40" rx="12" fill="#FFEDD5"/>
  <text x="108" y="108" text-anchor="middle" dominant-baseline="middle" font-size="22">📋</text>
  <!-- 标题 -->
  <text x="142" y="108" dominant-baseline="middle"
        font-size="30" fill="#0F172A" font-weight="700">问题整改台账</text>
  <!-- 右侧按钮 -->
  <rect x="1270" y="88" width="108" height="40" rx="20" fill="#FFEDD5"/>
  <text x="1324" y="108" text-anchor="middle" dominant-baseline="middle"
        font-size="15" fill="#C2410C" font-weight="600">新增问题</text>
  <rect x="1392" y="88" width="120" height="40" rx="20" fill="#EA580C"/>
  <text x="1452" y="108" text-anchor="middle" dominant-baseline="middle"
        font-size="15" fill="white" font-weight="600">导出台账</text>

  <!-- ===== 整改闭环流程条 ===== -->
  <rect x="72" y="172" width="1456" height="110" rx="20" fill="white" stroke="#E2E8F0"/>

  <!-- 连接线（底层先画） -->
  <line x1="217" y1="227" x2="1381" y2="227" stroke="#FED7AA" stroke-width="3" stroke-dasharray="6 4"/>

  <!-- 步骤1：发现问题 -->
  <circle cx="217" cy="227" r="28" fill="url(#step1-g)"
          filter="drop-shadow(0 3px 8px rgba(251,146,60,0.35))"/>
  <text x="217" y="227" text-anchor="middle" dominant-baseline="middle" font-size="16" fill="white" font-weight="700">01</text>
  <text x="217" y="264" text-anchor="middle" dominant-baseline="middle" font-size="15" fill="#9A3412" font-weight="600">发现问题</text>

  <!-- 步骤2：责任分派 -->
  <circle cx="508" cy="227" r="28" fill="url(#step2-g)"
          filter="drop-shadow(0 3px 8px rgba(249,115,22,0.35))"/>
  <text x="508" y="227" text-anchor="middle" dominant-baseline="middle" font-size="16" fill="white" font-weight="700">02</text>
  <text x="508" y="264" text-anchor="middle" dominant-baseline="middle" font-size="15" fill="#9A3412" font-weight="600">责任分派</text>

  <!-- 步骤3：整改中（当前激活） -->
  <circle cx="800" cy="227" r="32" fill="url(#step3-g)"
          filter="drop-shadow(0 4px 12px rgba(234,88,12,0.45))"/>
  <circle cx="800" cy="227" r="38" fill="none" stroke="#FB923C" stroke-width="2" stroke-dasharray="4 3" opacity="0.6"/>
  <text x="800" y="227" text-anchor="middle" dominant-baseline="middle" font-size="16" fill="white" font-weight="700">03</text>
  <text x="800" y="268" text-anchor="middle" dominant-baseline="middle" font-size="15" fill="#7C2D12" font-weight="700">整改中</text>
  <!-- 当前步骤标记 -->
  <rect x="764" y="185" width="72" height="22" rx="11" fill="#FEF3C7"/>
  <text x="800" y="196" text-anchor="middle" dominant-baseline="middle" font-size="11" fill="#B45309" font-weight="700">当前阶段</text>

  <!-- 步骤4：复核验收 -->
  <circle cx="1090" cy="227" r="28" fill="url(#step4-g)" opacity="0.5"/>
  <text x="1090" y="227" text-anchor="middle" dominant-baseline="middle" font-size="16" fill="white" font-weight="700">04</text>
  <text x="1090" y="264" text-anchor="middle" dominant-baseline="middle" font-size="15" fill="#9A3412" font-weight="600" opacity="0.6">复核验收</text>

  <!-- 步骤5：完成归档 -->
  <circle cx="1381" cy="227" r="28" fill="url(#step5-g)" opacity="0.4"/>
  <text x="1381" y="227" text-anchor="middle" dominant-baseline="middle" font-size="16" fill="white" font-weight="700">05</text>
  <text x="1381" y="264" text-anchor="middle" dominant-baseline="middle" font-size="15" fill="#9A3412" font-weight="600" opacity="0.5">完成归档</text>

  <!-- ===== 左侧：问题台账列表 ===== -->
  <rect x="72" y="310" width="900" height="430" rx="24" fill="white" stroke="#E2E8F0"
        filter="drop-shadow(0 2px 8px rgba(15,23,42,0.05))"/>

  <!-- 列表标题 -->
  <text x="108" y="348" dominant-baseline="middle" font-size="20" fill="#0F172A" font-weight="700">问题台账</text>
  <!-- 筛选标签 -->
  <rect x="820" y="334" width="56" height="26" rx="13" fill="#FEF3C7"/>
  <text x="848" y="347" text-anchor="middle" dominant-baseline="middle" font-size="12" fill="#B45309" font-weight="600">整改中</text>
  <rect x="884" y="334" width="56" height="26" rx="13" fill="#DBEAFE"/>
  <text x="912" y="347" text-anchor="middle" dominant-baseline="middle" font-size="12" fill="#1D4ED8" font-weight="600">待复核</text>
  <!-- 分隔线 -->
  <line x1="72" y1="368" x2="972" y2="368" stroke="#F1F5F9" stroke-width="1.5"/>

  <!-- 表头 -->
  <rect x="88" y="374" width="868" height="32" rx="8" fill="#F8FAFC"/>
  <text x="108" y="390" dominant-baseline="middle" font-size="13" fill="#94A3B8" font-weight="600">问题描述</text>
  <text x="460" y="390" dominant-baseline="middle" font-size="13" fill="#94A3B8" font-weight="600">责任人</text>
  <text x="620" y="390" dominant-baseline="middle" font-size="13" fill="#94A3B8" font-weight="600">截止日期</text>
  <text x="800" y="390" dominant-baseline="middle" font-size="13" fill="#94A3B8" font-weight="600">状态</text>

  <!-- 记录1：整改中 -->
  <rect x="88" y="414" width="868" height="82" rx="16" fill="#FFFBF5" stroke="#FED7AA"/>
  <!-- 左侧高风险色条 -->
  <rect x="88" y="414" width="5" height="82" rx="3" fill="#F97316"/>
  <!-- 序号 -->
  <rect x="102" y="432" width="28" height="28" rx="8" fill="#FFEDD5"/>
  <text x="116" y="446" text-anchor="middle" dominant-baseline="middle" font-size="13" fill="#C2410C" font-weight="700">01</text>
  <!-- 问题名 -->
  <text x="144" y="443" dominant-baseline="middle" font-size="17" fill="#0F172A" font-weight="600">餐具消毒台账缺失</text>
  <text x="144" y="463" dominant-baseline="middle" font-size="12" fill="#94A3B8">发现时间：2026-03-10 · 高风险</text>
  <!-- 责任人 -->
  <circle cx="472" cy="455" r="14" fill="#FFEDD5"/>
  <text x="472" y="455" text-anchor="middle" dominant-baseline="middle" font-size="12" fill="#C2410C" font-weight="700">后</text>
  <text x="492" y="455" dominant-baseline="middle" font-size="14" fill="#475569">后勤主任</text>
  <!-- 截止日期 -->
  <text x="620" y="455" dominant-baseline="middle" font-size="14" fill="#475569">03-20</text>
  <rect x="672" y="444" width="44" height="20" rx="10" fill="#FEE2E2"/>
  <text x="694" y="454" text-anchor="middle" dominant-baseline="middle" font-size="11" fill="#B91C1C" font-weight="600">逾期</text>
  <!-- 状态 -->
  <rect x="790" y="442" width="72" height="26" rx="13" fill="#FEF3C7"/>
  <text x="826" y="455" text-anchor="middle" dominant-baseline="middle" font-size="13" fill="#B45309" font-weight="700">整改中</text>

  <!-- 记录2：待复核（选中高亮） -->
  <rect x="88" y="506" width="868" height="82" rx="16" fill="#EFF6FF" stroke="#BFDBFE" stroke-width="2"/>
  <rect x="88" y="506" width="5" height="82" rx="3" fill="#3B82F6"/>
  <rect x="102" y="524" width="28" height="28" rx="8" fill="#DBEAFE"/>
  <text x="116" y="538" text-anchor="middle" dominant-baseline="middle" font-size="13" fill="#1D4ED8" font-weight="700">02</text>
  <text x="144" y="535" dominant-baseline="middle" font-size="17" fill="#0F172A" font-weight="600">留样柜温度记录不完整</text>
  <text x="144" y="555" dominant-baseline="middle" font-size="12" fill="#94A3B8">发现时间：2026-03-12 · 中风险</text>
  <circle cx="472" cy="547" r="14" fill="#DBEAFE"/>
  <text x="472" y="547" text-anchor="middle" dominant-baseline="middle" font-size="12" fill="#1D4ED8" font-weight="700">食</text>
  <text x="492" y="547" dominant-baseline="middle" font-size="14" fill="#475569">食堂经理</text>
  <text x="620" y="547" dominant-baseline="middle" font-size="14" fill="#475569">03-22</text>
  <rect x="790" y="534" width="72" height="26" rx="13" fill="#DBEAFE"/>
  <text x="826" y="547" text-anchor="middle" dominant-baseline="middle" font-size="13" fill="#1D4ED8" font-weight="700">待复核</text>

  <!-- 记录3：已完成 -->
  <rect x="88" y="598" width="868" height="82" rx="16" fill="#F8FAFC" stroke="#E2E8F0"/>
  <rect x="88" y="598" width="5" height="82" rx="3" fill="#10B981"/>
  <rect x="102" y="616" width="28" height="28" rx="8" fill="#DCFCE7"/>
  <text x="116" y="630" text-anchor="middle" dominant-baseline="middle" font-size="13" fill="#166534" font-weight="700">03</text>
  <text x="144" y="627" dominant-baseline="middle" font-size="17" fill="#0F172A" font-weight="600">食材标签标识不规范</text>
  <text x="144" y="647" dominant-baseline="middle" font-size="12" fill="#94A3B8">发现时间：2026-03-08 · 低风险</text>
  <circle cx="472" cy="639" r="14" fill="#DCFCE7"/>
  <text x="472" y="639" text-anchor="middle" dominant-baseline="middle" font-size="12" fill="#166534" font-weight="700">库</text>
  <text x="492" y="639" dominant-baseline="middle" font-size="14" fill="#475569">库房管理员</text>
  <text x="620" y="639" dominant-baseline="middle" font-size="14" fill="#475569">03-15</text>
  <rect x="790" y="626" width="72" height="26" rx="13" fill="#DCFCE7"/>
  <text x="826" y="639" text-anchor="middle" dominant-baseline="middle" font-size="13" fill="#166534" font-weight="700">已完成</text>

  <!-- 记录4：待整改 -->
  <rect x="88" y="690" width="868" height="36" rx="12" fill="#F8FAFC" stroke="#E2E8F0" stroke-dasharray="4 3"/>
  <text x="492" y="708" text-anchor="middle" dominant-baseline="middle" font-size="13" fill="#CBD5E1">+ 还有 2 条问题记录，点击查看全部</text>

  <!-- ===== 右侧：整改详情 ===== -->
  <rect x="992" y="310" width="536" height="430" rx="24" fill="white" stroke="#E2E8F0"
        filter="drop-shadow(0 2px 8px rgba(15,23,42,0.05))"/>
  <g clip-path="url(#clip-detail)">
    <!-- 顶部渐变头部 -->
    <rect x="992" y="310" width="536" height="90" fill="url(#detail-hd)"/>
    <rect x="992" y="310" width="536" height="24" rx="24" fill="url(#detail-hd)"/>
    <!-- 装饰圆 -->
    <circle cx="1490" cy="320" r="60" fill="white" opacity="0.06"/>
    <text x="1028" y="348" dominant-baseline="middle" font-size="18" fill="white" font-weight="700">整改详情</text>
    <rect x="1380" y="336" width="72" height="24" rx="12" fill="rgba(255,255,255,0.2)"/>
    <text x="1416" y="348" text-anchor="middle" dominant-baseline="middle" font-size="12" fill="white" font-weight="600">记录 #02</text>
    <text x="1028" y="374" dominant-baseline="middle" font-size="14" fill="rgba(255,255,255,0.8)">留样柜温度记录不完整</text>

    <!-- 问题说明 -->
    <text x="1028" y="422" dominant-baseline="middle" font-size="14" fill="#64748B" font-weight="600">📌 问题说明</text>
    <rect x="1028" y="432" width="464" height="16" rx="8" fill="#F1F5F9"/>
    <rect x="1028" y="432" width="380" height="16" rx="8" fill="#E2E8F0"/>
    <rect x="1028" y="456" width="464" height="16" rx="8" fill="#F1F5F9"/>
    <rect x="1028" y="456" width="300" height="16" rx="8" fill="#E2E8F0"/>
    <text x="1028" y="490" dominant-baseline="middle" font-size="13" fill="#94A3B8">留样柜 3 号冰箱连续 3 日温度记录缺失，</text>
    <text x="1028" y="508" dominant-baseline="middle" font-size="13" fill="#94A3B8">不符合食品安全留样规范要求。</text>

    <!-- 整改凭证 -->
    <text x="1028" y="540" dominant-baseline="middle" font-size="14" fill="#64748B" font-weight="600">📎 整改凭证</text>
    <!-- 凭证图片1 -->
    <rect x="1028" y="552" width="136" height="96" rx="14" fill="#FFF7ED" stroke="#FED7AA"/>
    <text x="1096" y="600" text-anchor="middle" dominant-baseline="middle" font-size="28">🌡️</text>
    <text x="1096" y="630" text-anchor="middle" dominant-baseline="middle" font-size="11" fill="#94A3B8">温度记录表</text>
    <!-- 凭证图片2 -->
    <rect x="1176" y="552" width="136" height="96" rx="14" fill="#EFF6FF" stroke="#BFDBFE"/>
    <text x="1244" y="600" text-anchor="middle" dominant-baseline="middle" font-size="28">📸</text>
    <text x="1244" y="630" text-anchor="middle" dominant-baseline="middle" font-size="11" fill="#94A3B8">现场照片</text>
    <!-- 上传更多 -->
    <rect x="1324" y="552" width="136" height="96" rx="14" fill="#F8FAFC" stroke="#E2E8F0" stroke-dasharray="4 3"/>
    <text x="1392" y="600" text-anchor="middle" dominant-baseline="middle" font-size="24" fill="#CBD5E1">＋</text>
    <text x="1392" y="630" text-anchor="middle" dominant-baseline="middle" font-size="11" fill="#CBD5E1">上传凭证</text>

    <!-- 复核结果 -->
    <text x="1028" y="672" dominant-baseline="middle" font-size="14" fill="#64748B" font-weight="600">✅ 复核结果</text>
    <rect x="1028" y="682" width="464" height="36" rx="12" fill="#DCFCE7" stroke="#A7F3D0"/>
    <text x="1260" y="700" text-anchor="middle" dominant-baseline="middle" font-size="14" fill="#166534" font-weight="600">复核通过 · 2026-03-18 · 复核人：食品安全主管</text>

    <!-- 操作按钮 -->
    <rect x="1028" y="730" width="210" height="40" rx="20" fill="#FFEDD5"/>
    <text x="1133" y="750" text-anchor="middle" dominant-baseline="middle" font-size="15" fill="#C2410C" font-weight="600">编辑整改记录</text>
    <rect x="1254" y="730" width="210" height="40" rx="20" fill="#EA580C"/>
    <text x="1359" y="750" text-anchor="middle" dominant-baseline="middle" font-size="15" fill="white" font-weight="600">提交复核申请</text>
  </g>

  <!-- ===== 底部统计栏 ===== -->
  <rect x="72" y="758" width="1456" height="72" rx="20" fill="url(#bottom-g)" stroke="#FED7AA"/>
  <g clip-path="url(#clip-bottom)">
    <text x="108" y="794" dominant-baseline="middle" font-size="15" fill="#9A3412" font-weight="700">本月整改概况</text>
    <line x1="240" y1="768" x2="240" y2="820" stroke="#FED7AA" stroke-width="1.5"/>

    <!-- 统计数字 -->
    <text x="272" y="782" dominant-baseline="middle" font-size="12" fill="#94A3B8">发现问题</text>
    <text x="272" y="804" dominant-baseline="middle" font-size="22" fill="#EA580C" font-weight="800">12</text>
    <text x="298" y="804" dominant-baseline="middle" font-size="12" fill="#94A3B8">项</text>

    <line x1="370" y1="768" x2="370" y2="820" stroke="#FED7AA" stroke-width="1.5"/>
    <text x="400" y="782" dominant-baseline="middle" font-size="12" fill="#94A3B8">整改中</text>
    <text x="400" y="804" dominant-baseline="middle" font-size="22" fill="#F97316" font-weight="800">5</text>
    <text x="422" y="804" dominant-baseline="middle" font-size="12" fill="#94A3B8">项</text>

    <line x1="490" y1="768" x2="490" y2="820" stroke="#FED7AA" stroke-width="1.5"/>
    <text x="520" y="782" dominant-baseline="middle" font-size="12" fill="#94A3B8">待复核</text>
    <text x="520" y="804" dominant-baseline="middle" font-size="22" fill="#3B82F6" font-weight="800">3</text>
    <text x="542" y="804" dominant-baseline="middle" font-size="12" fill="#94A3B8">项</text>

    <line x1="610" y1="768" x2="610" y2="820" stroke="#FED7AA" stroke-width="1.5"/>
    <text x="640" y="782" dominant-baseline="middle" font-size="12" fill="#94A3B8">已完成</text>
    <text x="640" y="804" dominant-baseline="middle" font-size="22" fill="#16A34A" font-weight="800">4</text>
    <text x="662" y="804" dominant-baseline="middle" font-size="12" fill="#94A3B8">项</text>

    <line x1="730" y1="768" x2="730" y2="820" stroke="#FED7AA" stroke-width="1.5"/>
    <!-- 整改完成率进度条 -->
    <text x="760" y="782" dominant-baseline="middle" font-size="12" fill="#94A3B8">整改完成率</text>
    <rect x="760" y="798" width="400" height="10" rx="5" fill="#FED7AA"/>
    <rect x="760" y="798" width="133" height="10" rx="5" fill="#EA580C"/>
    <text x="1170" y="803" dominant-baseline="middle" font-size="14" fill="#EA580C" font-weight="700">33%</text>

    <line x1="1220" y1="768" x2="1220" y2="820" stroke="#FED7AA" stroke-width="1.5"/>
    <text x="1250" y="782" dominant-baseline="middle" font-size="12" fill="#94A3B8">逾期未整改</text>
    <text x="1250" y="804" dominant-baseline="middle" font-size="22" fill="#DC2626" font-weight="800">2</text>
    <text x="1272" y="804" dominant-baseline="middle" font-size="12" fill="#94A3B8">项</text>

    <line x1="1340" y1="768" x2="1340" y2="820" stroke="#FED7AA" stroke-width="1.5"/>
    <text x="1370" y="782" dominant-baseline="middle" font-size="12" fill="#94A3B8">平均整改周期</text>
    <text x="1370" y="804" dominant-baseline="middle" font-size="22" fill="#0F172A" font-weight="800">4.2</text>
    <text x="1412" y="804" dominant-baseline="middle" font-size="12" fill="#94A3B8">天</text>
  </g>
</svg>